<?xml version="1.0" standalone="no"?>
<!DOCTYPE svg PUBLIC "-//W3C//DTD SVG 20010904//EN"
 "http://www.w3.org/TR/2001/REC-SVG-20010904/DTD/svg10.dtd">
<svg version="1.0" xmlns="http://www.w3.org/2000/svg"
 width="2763.000000pt" height="700.000000pt" viewBox="0 0 2763.000000 700.000000"
 preserveAspectRatio="xMidYMid meet">
<metadata>
Created by potrace 1.13, written by Peter Selinger 2001-2015
</metadata>
<g transform="translate(0.000000,700.000000) scale(0.100000,-0.100000)"
fill="#ccc" stroke="none">
<path d="M5867 6753 l106 -208 -6 -95 c-9 -139 -53 -292 -174 -600 -110 -279
-240 -532 -334 -651 l-29 -37 113 -73 c579 -378 992 -543 1187 -474 29 10 82
15 166 15 78 0 124 4 124 10 0 26 -96 110 -210 186 -69 45 -140 97 -157 116
-101 105 -116 389 -41 786 28 146 32 188 31 332 0 136 -4 179 -21 242 -44 162
-125 319 -205 400 -53 54 -197 129 -330 173 -70 23 -302 85 -319 85 -4 0 40
-93 99 -207z"/>
<path d="M22295 6773 c-133 -11 -434 -46 -510 -59 -186 -31 -537 -129 -659
-184 -167 -75 -536 -309 -604 -383 -111 -122 -162 -242 -162 -383 l0 -84 229
0 229 0 51 -40 c28 -22 62 -58 76 -79 31 -47 81 -66 151 -57 231 27 245 25
338 -63 61 -58 79 -69 119 -75 85 -13 83 -17 90 162 10 255 55 407 167 572
151 223 462 450 774 566 103 38 126 55 107 78 -7 9 -30 20 -50 26 -33 9 -253
11 -346 3z"/>
<path d="M12993 6234 c-18 -4 -23 -12 -23 -35 0 -19 -4 -28 -11 -24 -12 8 -69
-13 -69 -25 0 -33 14 -40 81 -40 l68 0 15 -51 c23 -77 28 -80 101 -73 35 4 78
4 97 0 32 -6 34 -9 45 -66 15 -80 44 -123 106 -159 29 -16 71 -44 95 -60 42
-31 42 -31 42 -96 0 -58 5 -76 45 -155 53 -106 95 -257 95 -344 0 -114 -57
-530 -80 -583 -10 -25 -78 -63 -112 -63 -13 0 -65 -22 -116 -49 -91 -49 -92
-49 -103 -28 -20 38 -51 66 -80 72 -16 4 -29 11 -29 16 0 21 -18 7 -39 -31
-25 -45 -48 -59 -136 -86 -46 -14 -76 -33 -130 -81 -70 -63 -70 -63 -132 -63
-59 0 -63 -2 -88 -35 -15 -19 -30 -34 -33 -33 -4 1 -32 -7 -62 -19 -30 -11
-74 -24 -96 -28 l-42 -6 5 -58 5 -58 -273 -6 c-329 -8 -508 -22 -603 -49 -39
-11 -88 -22 -110 -25 l-39 -5 6 -72 c8 -92 2 -114 -27 -109 l-22 5 22 -89 c22
-85 23 -104 23 -537 l1 -449 27 -55 c22 -45 28 -75 34 -171 8 -118 36 -259 84
-411 14 -47 47 -164 71 -260 49 -189 52 -245 18 -342 -35 -101 -132 -185 -240
-209 -30 -7 -54 -13 -54 -13 0 -1 9 -29 19 -64 11 -34 25 -94 31 -132 l12 -70
59 0 60 0 70 70 c65 66 72 70 114 70 51 0 138 -31 242 -85 119 -63 197 -51
307 46 l48 43 89 -11 c139 -18 230 -70 262 -152 14 -34 21 -39 59 -45 124 -20
179 -38 228 -77 44 -34 56 -39 103 -39 47 0 59 -4 88 -31 l34 -32 162 -1 c154
-1 163 -2 183 -23 19 -21 29 -23 138 -23 262 1 545 31 664 71 66 22 89 36 278
173 69 50 163 110 210 134 96 49 200 142 200 179 0 30 -86 103 -179 151 -72
37 -76 42 -93 92 -40 117 -51 215 -45 400 6 204 28 345 93 610 49 199 49 213
-1 246 -32 21 -31 29 5 106 16 34 30 77 30 95 0 33 -22 63 -46 63 -12 0 -14
66 -14 443 0 609 19 942 71 1237 51 296 125 475 245 597 36 36 44 51 44 80 0
50 -34 116 -75 147 -38 29 -52 31 -90 14 -21 -9 -31 -9 -46 0 -10 7 -49 12
-86 12 -104 1 -136 20 -293 180 -111 114 -142 140 -165 140 -23 0 -223 40
-277 56 -12 4 -18 15 -18 35 0 27 -6 33 -53 54 -29 14 -87 30 -129 36 l-75 11
6 32 c4 17 4 44 1 61 -5 28 -9 30 -65 37 -91 12 -157 36 -213 78 l-50 38 -229
6 c-125 2 -238 2 -250 0z m-123 -2429 c52 -9 145 -27 205 -41 157 -36 256 -53
363 -60 l92 -7 0 -818 0 -818 61 -32 c37 -20 65 -42 70 -57 22 -57 3 -208 -44
-348 -23 -67 -25 -69 -73 -87 -27 -9 -68 -24 -90 -33 -25 -9 -44 -23 -47 -34
-10 -37 -109 -56 -121 -23 -6 14 -11 12 -37 -13 -17 -16 -38 -41 -47 -56 -14
-23 -23 -28 -57 -28 -30 0 -55 -9 -88 -31 -38 -25 -54 -30 -94 -27 l-48 3 -16
90 c-24 125 -31 141 -109 220 l-68 71 9 54 c5 30 6 78 3 105 -10 91 -12 95
-44 95 l-30 0 0 945 0 945 58 0 c31 0 100 -7 152 -15z m34 -2508 c13 -10 17
-24 14 -61 l-3 -49 -123 -1 c-67 -1 -122 0 -122 2 0 10 55 108 64 114 19 13
151 9 170 -5z"/>
<path d="M20350 5358 l0 -195 -30 -67 c-63 -138 -91 -242 -101 -370 -16 -214
-35 -259 -144 -340 -301 -223 -463 -380 -537 -520 -55 -104 -69 -153 -44 -162
9 -3 66 13 127 36 179 66 312 95 494 105 l100 6 32 -68 c27 -59 33 -87 44
-208 15 -183 16 -292 1 -307 -9 -9 -12 -206 -12 -800 l0 -787 -22 -12 c-13 -7
-61 -39 -106 -72 -151 -109 -385 -422 -447 -596 l-15 -44 232 7 c128 3 307 9
398 12 169 7 290 -3 400 -31 30 -8 105 -24 165 -35 143 -27 244 -62 327 -111
69 -40 215 -88 423 -136 87 -20 138 -26 245 -27 l135 -1 140 73 c233 119 236
122 338 245 102 122 172 182 257 220 30 13 71 41 90 63 36 40 67 100 57 110
-3 4 -48 -1 -99 -10 -525 -89 -910 -48 -1105 119 -21 18 -66 46 -100 64 l-63
31 0 954 0 953 188 6 c283 10 486 37 648 86 65 20 76 28 193 141 202 197 382
342 498 400 66 33 130 109 182 216 32 65 68 190 58 201 -3 3 -23 2 -44 -2 -30
-5 -53 -22 -113 -86 -56 -60 -87 -84 -125 -98 -28 -11 -74 -35 -102 -54 -63
-42 -148 -76 -223 -88 -102 -17 -556 -23 -699 -10 -145 14 -342 50 -386 72
-16 8 -39 34 -52 58 -23 44 -23 47 -23 396 0 326 -1 355 -20 411 -24 72 -57
109 -107 124 -21 6 -112 17 -203 25 -250 21 -293 39 -367 148 -42 60 -85 87
-143 87 -37 0 -152 21 -312 56 l-28 7 0 -195z"/>
<path d="M16963 4821 c-17 -11 -78 -76 -135 -145 -109 -131 -166 -175 -313
-241 -294 -131 -751 -215 -1171 -215 -46 0 -84 -4 -84 -9 0 -4 9 -20 20 -33
24 -31 80 -55 149 -64 59 -8 53 10 71 -234 6 -80 38 -464 70 -855 95 -1138
117 -1474 105 -1573 l-6 -52 -150 0 -150 0 73 -59 c103 -83 195 -167 502 -460
259 -247 270 -256 305 -253 67 6 285 54 578 127 514 130 664 156 898 155 155
0 213 -6 325 -35 92 -23 236 -96 297 -149 58 -52 76 -55 233 -36 253 31 461
133 577 284 37 47 38 52 38 129 0 75 1 80 24 89 15 5 35 5 52 -1 23 -8 28 -6
33 12 9 34 7 135 -3 141 -4 3 -23 1 -42 -4 -136 -40 -412 -64 -613 -55 l-149
7 6 1057 c4 581 12 1099 17 1151 6 52 23 140 40 195 31 107 53 250 44 294 -15
72 -28 111 -36 111 -6 0 -44 -25 -86 -55 -75 -54 -76 -54 -96 -36 -284 254
-533 464 -616 516 -36 23 -49 25 -156 25 -134 0 -130 -2 -254 115 -41 39 -97
86 -124 105 -101 69 -209 89 -273 51z m-73 -719 c107 -27 264 -62 348 -78
l153 -29 14 -48 c44 -148 55 -275 65 -752 5 -242 14 -476 20 -520 22 -170 23
-258 5 -417 -12 -107 -15 -184 -10 -245 4 -48 7 -119 7 -158 0 -160 -97 -297
-249 -355 -81 -31 -397 -89 -525 -97 l-108 -6 0 29 c0 36 35 93 78 129 41 34
38 52 -18 142 -53 85 -59 111 -49 233 13 159 29 1088 29 1694 l0 538 23 -5
c12 -3 110 -27 217 -55z m-827 -1212 c54 -281 156 -510 271 -606 l46 -38 0
-80 c0 -79 0 -79 -20 -61 -29 27 -154 191 -239 315 -61 89 -77 106 -103 110
-46 7 -58 53 -67 255 -4 94 -10 176 -15 183 -5 9 8 12 51 12 l59 0 17 -90z"/>
<path d="M405 4579 c-59 -62 -236 -218 -317 -279 -46 -34 -84 -66 -86 -71 -5
-13 48 -59 100 -85 26 -13 98 -38 160 -54 161 -44 198 -67 291 -186 349 -443
727 -1144 1190 -2207 l92 -212 0 -85 c0 -77 -3 -92 -36 -160 -36 -75 -125
-195 -193 -259 l-36 -35 0 -93 c0 -51 2 -93 5 -93 3 0 47 29 99 65 105 73 127
77 244 50 160 -38 566 -186 971 -354 l194 -81 42 39 c23 21 65 49 94 62 l51
24 -6 45 c-19 134 -90 320 -166 435 -139 213 -329 335 -620 399 -27 6 -28 9
-28 66 0 57 1 60 25 60 35 0 141 -40 217 -83 160 -89 405 -314 613 -562 55
-65 112 -132 127 -149 l27 -31 1 46 c0 51 19 77 213 292 85 94 107 124 107
148 0 16 -4 29 -9 29 -24 0 -155 -61 -199 -92 l-48 -35 -48 18 c-54 20 -111
61 -127 90 -8 17 -3 38 30 112 107 246 282 703 295 775 9 42 19 157 24 254 9
162 12 180 35 220 29 50 282 411 732 1046 l320 452 188 0 c103 0 187 3 187 6
0 17 -49 118 -86 174 -75 117 -173 190 -319 236 -80 26 -81 26 -290 18 -457
-19 -704 -4 -824 51 -39 18 -71 25 -117 25 l-64 0 6 -27 c16 -66 75 -219 99
-254 25 -39 25 -40 11 -102 -45 -192 -192 -518 -466 -1032 -269 -505 -418
-809 -494 -1007 -21 -54 -42 -98 -48 -98 -19 0 -97 60 -138 107 -83 93 -174
252 -241 420 -17 43 -70 188 -119 323 -213 597 -242 663 -332 757 -112 116
-225 184 -475 284 -257 103 -309 119 -383 119 l-70 0 0 64 0 64 104 -33 c155
-49 399 -85 583 -85 71 0 73 1 78 28 4 15 16 52 28 82 18 47 22 80 24 221 l4
167 -83 -29 c-46 -15 -126 -36 -178 -45 -129 -24 -404 -24 -560 0 -109 16
-336 61 -363 72 -7 2 -26 -10 -42 -27z m345 -416 l0 -64 -32 3 c-31 3 -33 7
-55 75 -12 39 -25 96 -28 125 l-7 53 61 -64 61 -64 0 -64z"/>
<path d="M8540 4583 c-53 -19 -146 -74 -224 -132 -50 -37 -125 -92 -166 -122
-41 -30 -134 -104 -207 -166 -140 -117 -266 -211 -345 -257 -27 -16 -48 -34
-48 -42 0 -8 -12 -43 -26 -79 -15 -36 -24 -68 -21 -71 2 -3 32 4 66 16 34 11
87 25 119 30 31 5 80 15 107 21 54 13 132 6 158 -14 33 -25 135 -627 168 -997
14 -167 14 -491 -1 -615 -22 -186 -86 -381 -151 -463 -28 -36 -95 -83 -207
-145 -51 -28 -118 -72 -149 -97 l-55 -45 -2 -101 c-1 -93 -4 -106 -34 -164
-28 -54 -32 -73 -32 -136 0 -41 3 -74 7 -74 4 0 49 28 100 61 92 61 94 62 147
55 128 -15 459 -129 924 -320 128 -53 239 -96 245 -96 7 0 62 30 122 66 181
108 301 204 372 299 61 81 186 345 163 345 -6 0 -10 11 -10 25 0 14 -6 25 -12
25 -23 -1 -127 -47 -178 -80 l-51 -33 -50 24 c-68 31 -114 84 -127 145 -29
137 -37 390 -37 1279 0 938 5 1124 33 1151 34 35 161 0 397 -108 157 -73 335
-143 424 -167 63 -17 66 -20 69 -50 4 -40 -31 -97 -83 -137 -37 -28 -68 -33
-122 -20 l-33 8 0 -1272 0 -1271 -34 -74 c-52 -112 -121 -212 -205 -296 -95
-95 -176 -148 -289 -189 -48 -17 -107 -44 -132 -60 -27 -17 -67 -31 -100 -35
-30 -4 -82 -16 -115 -28 -54 -20 -60 -25 -63 -53 -3 -30 -2 -31 86 -58 130
-40 232 -55 365 -56 175 0 321 36 448 111 34 19 76 32 155 44 554 86 878 443
969 1066 43 292 25 884 -46 1514 -16 138 -23 289 -29 648 -5 258 -11 471 -14
474 -3 4 76 61 177 129 100 67 209 144 242 171 59 48 60 50 65 106 3 36 11 62
20 68 10 6 -6 7 -45 2 -33 -5 -231 -8 -440 -8 -313 0 -404 3 -515 18 -264 36
-466 105 -568 193 -43 36 -44 37 -110 31 -194 -19 -371 -103 -561 -267 -64
-57 -85 -70 -92 -59 -5 8 -9 18 -9 22 0 14 -172 187 -251 253 -77 64 -108 75
-159 57z m1783 -435 c-98 -128 -218 -280 -240 -304 -24 -26 -33 -30 -60 -25
l-33 6 45 59 c24 32 87 108 140 167 83 94 100 109 127 109 23 0 28 -3 21 -12z"/>
<path d="M25793 4539 c15 -105 91 -800 147 -1338 33 -321 69 -623 79 -671 84
-381 309 -693 672 -932 105 -69 286 -164 405 -213 80 -32 93 -41 108 -72 26
-54 8 -67 -98 -71 -67 -3 -102 1 -182 23 -97 27 -197 35 -241 21 -17 -5 -23
-2 -28 16 -17 55 -113 168 -317 371 -120 120 -226 233 -234 250 -9 18 -39 60
-66 95 -27 35 -55 83 -63 108 -26 87 -53 90 -101 9 l-26 -45 41 -197 c22 -109
50 -229 62 -268 11 -38 23 -86 26 -106 l5 -36 -105 -7 c-207 -13 -390 -57
-587 -142 -126 -54 -180 -66 -180 -41 0 7 7 91 16 187 33 374 33 888 -1 1110
-74 485 -314 853 -732 1123 -87 56 -93 62 -93 93 l0 34 53 -21 c216 -84 360
-181 546 -366 79 -79 144 -142 146 -141 1 2 22 41 46 88 90 170 203 321 295
392 30 24 54 46 54 50 0 19 -70 40 -192 58 -73 11 -155 27 -181 36 -26 9 -152
69 -280 133 -474 240 -791 353 -992 355 -99 1 -119 -6 -344 -127 -94 -50 -94
-50 -72 -68 22 -18 37 -21 202 -38 101 -10 152 -29 217 -80 55 -43 69 -77 98
-241 26 -146 28 -175 32 -510 7 -644 -21 -1604 -51 -1755 l-12 -59 -100 -56
c-55 -30 -109 -61 -120 -67 -17 -10 -15 -12 25 -23 220 -57 790 -240 1021
-328 274 -104 539 -226 716 -331 56 -34 109 -61 117 -61 24 0 205 70 386 150
223 98 266 113 296 106 14 -4 123 -53 242 -110 308 -146 324 -152 379 -137
158 42 438 188 619 324 149 112 225 271 156 329 -9 8 -51 27 -92 43 -97 36
-282 130 -303 153 -18 20 -56 189 -87 392 -75 487 -86 1081 -29 1674 32 342
26 315 84 353 28 18 82 50 120 70 l70 38 -95 7 c-449 35 -950 197 -1366 444
-128 75 -118 73 -111 23z"/>
<path d="M5580 4493 c-57 -87 -255 -285 -342 -343 -37 -25 -68 -52 -68 -60 0
-8 73 -87 164 -175 l164 -160 21 -75 c82 -297 122 -608 122 -955 0 -356 -35
-638 -127 -1012 -17 -71 -17 -73 2 -88 26 -20 110 -45 183 -53 l61 -7 -30 -64
c-29 -62 -30 -65 -13 -84 26 -28 154 -117 170 -117 18 0 18 1 -23 -139 -21
-76 -32 -127 -26 -133 5 -5 123 -97 263 -204 l254 -195 110 6 c395 21 687 178
855 461 29 48 40 59 64 61 44 3 44 12 3 48 -67 58 -204 90 -432 101 -113 5
-135 9 -166 29 -30 19 -36 28 -32 49 7 33 -11 318 -44 726 -21 258 -27 391
-27 645 -1 389 0 393 144 825 96 289 130 414 130 484 0 34 -2 36 -57 52 -58
17 -108 20 -303 14 -196 -5 -336 51 -620 251 -125 87 -268 164 -325 174 -28 5
-33 1 -75 -62z"/>
</g>
</svg>
